<svg width="159" height="149" viewBox="0 0 159 149" fill="none" xmlns="http://www.w3.org/2000/svg">
<path fill-rule="evenodd" clip-rule="evenodd" d="M72.9289 3.35789C76.8342 -0.547356 83.1658 -0.547356 87.0711 3.35789C87.0711 3.35789 158.142 71.8579 158.142 74.429C158.142 77 87.0711 145.5 87.0711 145.5C83.1658 149.405 76.8342 149.405 72.9289 145.5C69.0237 141.595 69.0237 135.263 72.9289 131.358L118.328 84.236C118.945 83.5947 118.48 82.5267 117.59 82.5423L10 84.429C4.47715 84.429 0 79.9518 0 74.429C0 68.9061 4.47715 64.429 10 64.429L117.59 66.4547C118.481 66.4714 118.947 65.4041 118.33 64.7621L72.9289 17.5C69.0237 13.5948 69.0237 7.26313 72.9289 3.35789Z" fill="black"/>
</svg>
