<svg width="150" height="113" viewBox="0 0 150 113" fill="none" xmlns="http://www.w3.org/2000/svg">
<path fill-rule="evenodd" clip-rule="evenodd" d="M24.9129 43.589L43.7429 62.3853C46.2836 64.9214 46.2873 69.037 43.7512 71.5777V71.5777C41.215 74.1184 37.0994 74.122 34.5588 71.5859L1.41802 38.5045C0.635279 37.7231 0.63528 36.4549 1.41802 35.6735L34.5588 2.59208C37.0995 0.0559421 41.215 0.0596282 43.7512 2.60031V2.60031C46.2873 5.14099 46.2836 9.25656 43.7429 11.7927L24.9129 30.589H108.945C131.454 30.589 149.701 48.8359 149.701 71.3447C149.701 93.8534 131.454 112.1 108.945 112.1H67.7002C64.1103 112.1 61.2002 109.19 61.2002 105.6V105.6C61.2002 102.01 64.1103 99.1003 67.7002 99.1003H108.945C124.274 99.1003 136.701 86.6737 136.701 71.3447C136.701 56.0156 124.274 43.589 108.945 43.589H24.9129Z" fill="black"/>
</svg>
