<svg width="76" height="76" viewBox="0 0 76 76" fill="none" xmlns="http://www.w3.org/2000/svg">
<path fill-rule="evenodd" clip-rule="evenodd" d="M31.7959 31.7959V6.20408C31.7959 2.77766 34.5736 0 38 0V0C41.4264 0 44.2041 2.77767 44.2041 6.20409V31.7959H69.7959C73.2223 31.7959 76 34.5736 76 38V38C76 41.4264 73.2223 44.2041 69.7959 44.2041H44.2041V69.7959C44.2041 73.2223 41.4264 76 38 76V76C34.5736 76 31.7959 73.2223 31.7959 69.7959V44.2041H6.20408C2.77766 44.2041 0 41.4264 0 38V38C0 34.5736 2.77767 31.7959 6.20409 31.7959H31.7959Z" fill="#464646"/>
</svg>
