<svg width="118" height="118" viewBox="0 0 118 118" fill="none" xmlns="http://www.w3.org/2000/svg">
<path fill-rule="evenodd" clip-rule="evenodd" d="M10 59C10 86.062 31.938 108 59 108C86.062 108 108 86.062 108 59C108 31.938 86.062 10 59 10C31.938 10 10 31.938 10 59ZM59 0C26.4152 0 0 26.4152 0 59C0 91.5848 26.4152 118 59 118C91.5848 118 118 91.5848 118 59C118 26.4152 91.5848 0 59 0Z" fill="black"/>
<path d="M52.7612 77.8775V71.132C52.7612 69.1519 52.9442 67.3732 53.3103 65.7959C53.7131 64.2857 54.5002 62.7755 55.6718 61.2653L65.7216 48.4789C67.5888 46.0626 68.5224 43.7973 68.5224 41.683C68.4491 38.7968 67.424 36.5315 65.447 34.8871C63.4334 33.3097 61.2367 32.5211 58.857 32.5211C55.9281 32.5211 53.53 33.3433 51.6628 34.9878C49.5394 36.6993 48.4776 39.619 48.4776 43.7469H37V41.683C37.0732 35.9778 39.215 31.2961 43.4253 27.6381C47.5624 23.9465 52.5049 22.0671 58.2529 22C64.1107 22.0671 69.1447 23.8122 73.355 27.2354C77.7118 30.8263 79.9268 35.6757 80 41.7837C79.9268 46.1129 78.7186 49.7206 76.3755 52.6068L66.1609 65.4939C64.8063 67.2726 64.1656 69.4372 64.2388 71.9878V77.8775H52.7612ZM52.7612 96V85.4789H64.2388V96H52.7612Z" fill="black"/>
</svg>
