<svg width="109" height="129" viewBox="0 0 109 129" fill="none" xmlns="http://www.w3.org/2000/svg">
<path fill-rule="evenodd" clip-rule="evenodd" d="M57.869 29.1924L48.3083 38.7911C46.2854 40.8221 46.2915 44.1082 48.3219 46.1316V46.1316C50.353 48.1558 53.6407 48.1497 55.6643 46.118L77.694 24.0005L55.6643 1.88309C53.6407 -0.148598 50.353 -0.154688 48.3219 1.86949V1.86949C46.2915 3.8929 46.2854 7.179 48.3083 9.20992L57.869 18.8087C27.6559 18.8087 0.204102 43.4019 0.204102 73.5981C0.204102 103.693 24.5921 128.204 54.7041 128.204C83.0781 128.204 106.352 106.367 108.961 78.6914C109.23 75.8374 106.88 73.5064 104.014 73.5064V73.5064C101.147 73.5064 98.855 75.8405 98.5228 78.6878C95.9589 100.662 77.2973 117.82 54.7041 117.82C30.3503 117.82 10.5851 97.9834 10.5851 73.5981C10.5851 49.1116 33.4141 29.1924 57.869 29.1924Z" fill="black"/>
</svg>
