<svg width="517" height="14" viewBox="0 0 517 14" fill="none" xmlns="http://www.w3.org/2000/svg">
<path d="M2.49993 10.3333L11.9228 4.0429C13.4867 2.98009 15.4918 2.4754 17.4422 2.4754C19.3925 2.4754 21.3976 2.98009 22.9616 4.0429L32.0655 10.2297C33.7759 11.3921 36.0624 12 38.4037 12C40.745 12 43.0315 11.3921 44.7419 10.2297L53.8459 4.0429C55.4098 2.98009 57.4149 2.4754 59.3653 2.4754C61.3156 2.4754 63.3207 2.98009 64.8846 4.0429L73.9886 10.2297C75.699 11.3921 77.9855 12 80.3268 12C82.6681 12 84.9546 11.3921 86.6651 10.2297L95.769 4.0429C97.3329 2.98009 99.338 2.4754 101.288 2.4754C103.239 2.4754 105.244 2.98009 106.808 4.0429L115.912 10.2297C117.622 11.3921 119.909 12 122.25 12C124.591 12 126.878 11.3921 128.588 10.2297L137.692 4.0429C139.256 2.98009 141.261 2.4754 143.211 2.4754C145.162 2.4754 147.167 2.98009 148.731 4.0429L157.835 10.2297C159.545 11.3921 161.832 12 164.173 12C166.514 12 168.801 11.3921 170.511 10.2297L179.615 4.0429C181.179 2.98009 183.184 2.4754 185.135 2.4754C187.085 2.4754 189.09 2.98009 190.654 4.0429L199.758 10.2297C201.468 11.3921 203.755 12 206.096 12C208.437 12 210.724 11.3921 212.434 10.2297L221.538 4.0429C223.102 2.98009 225.107 2.4754 227.058 2.4754C229.008 2.4754 231.013 2.98009 232.577 4.0429L241.681 10.2297C243.391 11.3921 245.678 12 248.019 12C250.36 12 252.647 11.3921 254.357 10.2297L263.461 4.0429C265.025 2.98009 267.03 2.4754 268.981 2.4754C270.931 2.4754 272.936 2.98009 274.5 4.0429L283.604 10.2297C285.315 11.3921 287.601 12 289.942 12C292.284 12 294.57 11.3921 296.281 10.2297L305.384 4.04289C306.948 2.98009 308.954 2.47539 310.904 2.47539C312.854 2.47539 314.859 2.98008 316.423 4.04288L325.527 10.2297C327.238 11.3921 329.524 12 331.865 12C334.207 12 336.493 11.3921 338.204 10.2297L347.308 4.0429C348.872 2.98009 350.877 2.4754 352.827 2.4754C354.777 2.4754 356.783 2.98009 358.346 4.0429L367.45 10.2297C369.161 11.3921 371.447 12 373.789 12C376.13 12 378.416 11.3921 380.127 10.2297L389.231 4.0429C390.795 2.98009 392.8 2.4754 394.75 2.4754C396.701 2.4754 398.706 2.98009 400.27 4.0429L409.373 10.2297C411.084 11.3921 413.37 12 415.712 12C418.053 12 420.339 11.3921 422.05 10.2297L431.154 4.0429C432.718 2.98009 434.723 2.4754 436.673 2.4754C438.624 2.4754 440.629 2.98009 442.193 4.0429L451.297 10.2297C453.007 11.3921 455.294 12 457.635 12C459.976 12 462.263 11.3921 463.973 10.2297L473.077 4.0429C474.641 2.98009 476.646 2.4754 478.596 2.4754C480.547 2.4754 482.552 2.98009 484.116 4.0429L493.22 10.2297C494.93 11.3921 497.217 12 499.558 12C501.899 12 504.186 11.3921 505.896 10.2297L515 4.0429M2 9.9571L11.1039 3.77031C12.8144 2.60792 15.1009 2.00001 17.4422 2.00001C19.7834 2.00001 22.0699 2.60791 23.7804 3.77031L32.8843 9.9571C34.4482 11.0199 36.4534 11.5246 38.4037 11.5246C40.3541 11.5246 42.3592 11.0199 43.9231 9.9571L53.027 3.77031C54.7375 2.60792 57.024 2.00001 59.3653 2.00001C61.7065 2.00001 63.993 2.60791 65.7035 3.77031L74.8074 9.9571C76.3713 11.0199 78.3765 11.5246 80.3268 11.5246C82.2772 11.5246 84.2823 11.0199 85.8462 9.9571L94.9501 3.77031C96.6606 2.60792 98.9471 2.00001 101.288 2.00001C103.63 2.00001 105.916 2.60791 107.627 3.77031L116.731 9.9571C118.294 11.0199 120.3 11.5246 122.25 11.5246C124.2 11.5246 126.205 11.0199 127.769 9.9571L136.873 3.77031C138.584 2.60792 140.87 2.00001 143.211 2.00001C145.553 2.00001 147.839 2.60791 149.55 3.77031M149.55 3.77031L149.14 3.9066M149.55 3.77031L158.654 9.9571C160.218 11.0199 162.223 11.5246 164.173 11.5246C166.123 11.5246 168.128 11.0199 169.692 9.9571L178.796 3.77031C180.507 2.60792 182.793 2.00001 185.135 2.00001C187.476 2.00001 189.762 2.60791 191.473 3.77031L200.577 9.9571C202.141 11.0199 204.146 11.5246 206.096 11.5246C208.046 11.5246 210.052 11.0199 211.616 9.9571L220.719 3.77031C222.43 2.60792 224.716 2.00001 227.058 2.00001C229.399 2.00001 231.685 2.60791 233.396 3.77031L242.5 9.9571C244.064 11.0199 246.069 11.5246 248.019 11.5246C249.97 11.5246 251.975 11.0199 253.539 9.9571L262.643 3.77031C264.353 2.60792 266.64 2.00001 268.981 2.00001C271.322 2.00001 273.609 2.60791 275.319 3.77031L284.423 9.9571C285.987 11.0199 287.992 11.5246 289.942 11.5246C291.893 11.5246 293.898 11.0199 295.462 9.9571L304.566 3.7703C306.276 2.60791 308.563 2 310.904 2C313.245 2 315.532 2.6079 317.242 3.77029L326.346 9.95712C327.91 11.0199 329.915 11.5246 331.865 11.5246C333.816 11.5246 335.821 11.0199 337.385 9.95711L346.489 3.77031C348.199 2.60792 350.486 2.00001 352.827 2.00001C355.168 2.00001 357.455 2.60791 359.165 3.77031L368.269 9.9571C369.833 11.0199 371.838 11.5246 373.789 11.5246C375.739 11.5246 377.744 11.0199 379.308 9.9571L388.412 3.77031C390.122 2.60792 392.409 2.00001 394.75 2.00001C397.091 2.00001 399.378 2.60791 401.088 3.77031L410.192 9.9571C411.756 11.0199 413.761 11.5246 415.712 11.5246C417.662 11.5246 419.667 11.0199 421.231 9.9571L430.335 3.77031C432.045 2.60792 434.332 2.00001 436.673 2.00001C439.015 2.00001 441.301 2.60791 443.012 3.77031L452.115 9.9571C453.679 11.0199 455.684 11.5246 457.635 11.5246C459.585 11.5246 461.59 11.0199 463.154 9.9571L472.258 3.77031C473.969 2.60792 476.255 2.00001 478.596 2.00001C480.938 2.00001 483.224 2.60791 484.935 3.77031L494.038 9.9571C495.602 11.0199 497.608 11.5246 499.558 11.5246C501.508 11.5246 503.513 11.0199 505.077 9.9571L514.429 3.66667" stroke="black" stroke-width="4"/>
</svg>
