<?xml version="1.0" encoding="utf-8"?>
<!-- Generator: Adobe Illustrator 19.1.1, SVG Export Plug-In . SVG Version: 6.00 Build 0)  -->
<svg version="1.1" id="_x31_0" xmlns="http://www.w3.org/2000/svg" xmlns:xlink="http://www.w3.org/1999/xlink" x="0px" y="0px"
	 viewBox="0 0 512 512" style="enable-background:new 0 0 512 512;" xml:space="preserve">
<style type="text/css">
	.st0{fill:#000000;}
</style>
<g>
	<path class="st0" d="M72.006,327.797c-1.137,30.793,16.453,59.328,44.129,72.297C137.182,468.278,202.487,512,284.182,512
		c75.347,0,155.863-42.68,155.863-162.453V247.125c0-48.5-34.336-74.664-66.645-74.664c-8.519,0-16.648,1.586-24.25,4.726
		c-18.29-10.195-40.746-10.726-59.371-1.621c-8.894-4.77-18.805-7.473-28.649-7.766V76.957C261.131,26.434,227.338,0,193.952,0
		c-33.993,0-69.153,28.785-69.153,76.957v129.29l-10.496,5.726c-26.094,14.23-42.305,41.535-42.305,71.262L72.006,327.797z
		 M119.479,283.234c0-12.332,6.738-23.676,17.562-29.578l10.93-5.961v50.656l15.477,10.703l8.675,6.11v-0.11l0.161,0.11
		c0,0,0-205.91,0-238.207c0-18.961,11.011-29.473,21.668-29.473c10.007,0,19.699,9.254,19.699,29.473c0,31.23,0,130.934,0,164.906
		v1.012c0,0.046,0,0.109,0,0.16h25.363h0.078h0.157c0-18.504,10.058-27.778,20.113-27.778c10.039,0,20.07,9.246,20.07,27.778h18.535
		h0.055h0.16c0-17.566,9.973-26.594,19.855-26.594c9.711,0,19.336,8.71,19.336,26.594h18.039h0.054h0.16
		c0-15.152,8.778-23.094,17.774-23.094c9.461,0,19.16,8.777,19.16,27.183c0,26.157,0,66.157,0,102.422
		c0,87.277-54.839,114.972-108.378,114.972c-66.051,0-119.594-35.644-126.954-98.926l-19.5-7.867
		c-11.598-4.679-18.934-16.218-18.25-28.71V283.234z"/>
</g>
</svg>
